<svg xmlns="http://www.w3.org/2000/svg" version="1.1" xmlns:xlink="http://www.w3.org/1999/xlink" xmlns:svgjs="http://svgjs.dev/svgjs" width="100%" height="100%" viewBox="0 0 1000 600"><rect width="1000" height="600" x="0" y="0" fill="#ffffff"/><g><rect width="333.3333333333333" height="333.3333333333333" rx="13.333333333333334" ry="13.333333333333334" y="258.0820676879073" fill="#116611" transform="matrix(0.5299758724718188,0,0,0.5299758724718188,0,74.89344476599948)" x="235.859848022461"/><path d="M407.18245196558297 499.7487352125431L348.091543443901 499.7487352125431L348.091543443901 496.11868474246114L366.2733614505724 487.02777573912545L366.2733614505724 362.4696961309218L348.091543443901 353.3787871275862L348.091543443901 349.7487366575042L456.9614918900982 349.7487366575042L456.9614918900982 388.82701910934304L453.33144142001623 388.82701910934304L439.221593071089 362.2487365370908L386.7279067080777 362.2487365370908L386.7279067080777 416.09974611935013L423.09154272142047 416.09974611935013L434.45517897559006 397.2550493311855L438.085229445672 397.2550493311855L438.085229445672 447.03408925570074L434.45517897559006 447.03408925570074L423.09154272142047 428.59974599893667L386.7279067080777 428.59974599893667L386.7279067080777 487.02777573912545L407.18245196558297 496.11868474246114L407.18245196558297 499.7487352125431Z " fill="#f4a950" transform="matrix(0.5299758724718188,0,0,0.5299758724718188,0,74.89344476599948)"/><path d="M703.8423063719366 497.7750476998205L652.5265180430137 497.7750476998205L652.5265180430137 494.62263548944327L668.31599137499 486.7278988234552L668.31599137499 378.5590415873817L652.5265180430137 370.66430492139364L652.5265180430137 367.5118927110164L747.0714720742396 367.5118927110164L747.0714720742396 401.4482954627293L743.9190598638623 401.4482954627293L731.6657706635266 378.36715562675005L686.0791488734633 378.36715562675005L686.0791488734633 425.13250546069366L717.6580955374158 425.13250546069366L727.526516369901 408.76737424682244L730.6789285802781 408.76737424682244L730.6789285802781 451.99653994912546L727.526516369901 451.99653994912546L717.6580955374158 435.9877683764273L686.0791488734633 435.9877683764273L686.0791488734633 486.7278988234552L703.8423063719366 494.62263548944327L703.8423063719366 497.7750476998205ZM813.3817776125218 497.7750476998205L771.1394539934673 497.7750476998205L771.1394539934673 494.62263548944327L783.5846291544347 488.2903987885986L783.5846291544347 429.4910579950413L771.7425241554525 419.21145296120255L771.7425241554525 417.84083895669073L796.2216902760338 406.985576040957L797.4004183199139 406.985576040957L799.1822165257793 423.76189145618184L799.9497603683059 423.76189145618184Q804.5001988632852 416.4702249521789 808.3379180759183 412.7969794200872Q812.2030495686416 409.15114616808575 815.5473477396505 408.0820672445665Q818.9190581907495 406.985576040957 822.2633563617584 406.985576040957L822.2633563617584 406.985576040957Q823.8532686069922 406.985576040957 825.90918961376 407.58864620294224Q827.9925229006179 408.1643040848372 829.3631369051297 408.76737424682244L829.3631369051297 408.76737424682244Q831.5287070322585 409.7542163300709 833.4201543584848 411.1248303345828Q835.2841894046209 412.52285661918484 835.2841894046209 414.27724254495996L835.2841894046209 414.27724254495996Q835.2841894046209 416.0590407508254 834.489233282004 417.84083895669073L834.489233282004 417.84083895669073L830.5418649490099 427.51737382854424L829.1712509444981 427.51737382854424L821.6602861997732 424.5568475787987Q819.4947160726446 423.57000549555016 817.4387950658769 423.3781195349185Q815.3554617790188 423.1588212941966 813.3817776125218 423.1588212941966L813.3817776125218 423.1588212941966Q805.1032690252704 423.1588212941966 799.374102486411 431.65662812216993L799.374102486411 431.65662812216993L799.374102486411 488.2903987885986L813.3817776125218 494.62263548944327L813.3817776125218 497.7750476998205ZM890.355460105906 499.74873186631754L890.355460105906 499.74873186631754Q871.2216886029208 499.74873186631754 860.1471274464653 488.098512827967Q849.0999785701 476.44829378961646 849.0999785701 457.31452228663136L849.0999785701 457.31452228663136Q849.0999785701 442.51189103790364 854.9387942293205 431.1632070805457Q860.7501976084505 419.81452312318777 870.3170833599431 413.40004958207237Q879.8839691114357 406.985576040957 891.1504162285229 406.985576040957L891.1504162285229 406.985576040957Q906.7480035998675 406.985576040957 915.7118191893749 417.84083895669073Q924.7030470589724 428.6961018724244 924.7030470589724 449.0360136993799L924.7030470589724 449.0360136993799L923.7162049757239 450.0228557826284L864.6975659414446 450.0228557826284Q864.8894519020763 459.0963204924967 868.2611623531753 467.07329399875556Q871.6054605241842 475.07767978510464 879.006776148548 480.0118902013472Q886.4080917729119 484.94610061758976 898.8532669338794 484.94610061758976L898.8532669338794 484.94610061758976Q909.708529849613 484.94610061758976 924.2918628576189 477.0513639516017L924.2918628576189 477.0513639516017L924.8949330196041 477.0513639516017L924.8949330196041 479.02504811809865Q920.3444945246248 487.522854946072 911.3806789351174 493.6357934061948Q902.3894510655199 499.74873186631754 890.355460105906 499.74873186631754ZM887.9980040181457 415.675268829562L887.9980040181457 415.675268829562Q878.5133551069239 415.675268829562 872.4826534870718 422.28162833130904Q866.47936414731 428.88798783305606 865.081337862708 440.9219787926699L865.081337862708 440.9219787926699L909.708529849613 440.9219787926699Q907.5155474423941 427.51737382854424 902.0879159845273 421.5963213290531Q896.6602845266605 415.675268829562 887.9980040181457 415.675268829562ZM976.8137915105121 499.74873186631754L976.8137915105121 499.74873186631754Q967.521028559922 499.74873186631754 960.805019937814 498.1588196210838Q954.1164235957963 496.5963196559403 947.2085290130566 493.0327232442096L947.2085290130566 493.0327232442096L947.2085290130566 470.93842549147894L949.9497570220803 470.93842549147894L956.281993722925 481.7936884072126Q962.3949321830477 492.64895132294623 976.2107213485269 492.64895132294623L976.2107213485269 492.64895132294623Q984.1054580145151 492.64895132294623 988.5462473891333 488.89346895058384Q992.9870367637517 485.13798657822144 992.9870367637517 478.6412761968354L992.9870367637517 478.6412761968354Q992.9870367637517 472.912109657976 990.2183964746379 469.75969744759874Q987.4497561855238 466.57987295713133 982.4333089290106 464.11276774901Q977.3894493924071 461.64566254088874 970.4815548096675 458.4932503305115L970.4815548096675 458.4932503305115Q960.4212480165506 453.9702241156225 954.9936165586838 448.5425926577557Q949.565985100817 443.1149611998888 949.565985100817 433.24654036740367L949.565985100817 433.24654036740367Q949.565985100817 425.9274615833105 953.7052393944426 420.0064090838194Q957.8444936880684 414.08535658432834 964.2589672291838 410.5491724526878Q970.6734407702992 406.985576040957 977.5813353530388 406.985576040957L977.5813353530388 406.985576040957Q984.9004141371319 406.985576040957 991.0133525972547 408.76737424682244Q997.1262910573773 410.5491724526878 1003.458527758222 413.701584663065L1003.458527758222 413.701584663065L1003.458527758222 435.2202245339007L1000.6898874691082 435.2202245339007L994.165764807632 424.7487335394303Q990.821466636623 419.4307512019244 986.874098303629 417.04588283407384Q982.9267299706349 414.6884267463135 978.3762914756556 414.6884267463135L978.3762914756556 414.6884267463135Q971.6602828535476 414.6884267463135 967.6306776802829 418.03272491732235Q963.5736602269279 421.40443536842145 963.5736602269279 427.32548786791256L963.5736602269279 427.32548786791256Q963.5736602269279 434.0140842099303 968.4256338028997 437.46803150130006Q973.2501950987813 440.9219787926699 982.5155457692814 445.2805313270175L982.5155457692814 445.2805313270175Q988.052826347509 448.0491716161314 993.6723437660075 450.79039962515503Q999.291861184506 453.55903991426896 1002.9651067165978 458.6028994508725Q1006.6109399685993 463.6193467073858 1006.6109399685993 472.912109657976L1006.6109399685993 472.912109657976Q1006.6109399685993 481.6018024465809 1001.8686155129883 487.60509178634277Q997.1262910573773 493.6357934061948 990.2183964746379 496.67855649621106Q983.3105018918982 499.74873186631754 976.8137915105121 499.74873186631754ZM1071.7425174630011 497.7750476998205L1029.5001938439468 497.7750476998205L1029.5001938439468 494.62263548944327L1041.945369004914 488.2903987885986L1041.945369004914 372.25421716662737L1030.103264005932 361.97461213278865L1030.103264005932 360.6039981282768L1056.52870201292 349.7487352125431L1057.7348423368903 349.7487352125431L1057.7348423368903 421.5963213290531L1058.502386179417 421.5963213290531Q1066.0133509241418 414.08535658432834 1073.0308946272426 410.5491724526878Q1080.0210260502527 406.985576040957 1088.518832878226 406.985576040957L1088.518832878226 406.985576040957Q1100.1690519165763 406.985576040957 1107.5703675409404 412.7969794200872Q1114.9716831653045 418.63579507930757 1114.9716831653045 430.0667158769362L1114.9716831653045 430.0667158769362L1114.9716831653045 488.2903987885986L1127.3894460461815 494.62263548944327L1127.3894460461815 497.7750476998205L1085.1471224271268 497.7750476998205L1085.1471224271268 494.62263548944327L1099.1822098333282 488.89346895058384L1099.1822098333282 439.3594788275264Q1099.1822098333282 430.6697860389214 1093.7545783754613 426.1193475439421Q1088.3269469175943 421.5963213290531 1079.6372541289893 421.5963213290531L1079.6372541289893 421.5963213290531Q1074.2918595113933 421.5963213290531 1067.8773859702778 423.3781195349185Q1061.4629124291628 425.13250546069366 1057.7348423368903 428.5042159117927L1057.7348423368903 428.5042159117927L1057.7348423368903 488.89346895058384L1071.7425174630011 494.62263548944327L1071.7425174630011 497.7750476998205ZM1197.071462035563 497.7750476998205L1147.729357873137 497.7750476998205L1147.729357873137 494.62263548944327L1163.5188312051132 486.7278988234552L1163.5188312051132 378.5590415873817L1147.729357873137 370.66430492139364L1147.729357873137 367.5118927110164L1197.071462035563 367.5118927110164L1197.071462035563 370.66430492139364L1181.2819887035866 378.5590415873817L1181.2819887035866 425.13250546069366L1248.3872503644857 425.13250546069366L1248.3872503644857 378.5590415873817L1232.5977770325094 370.66430492139364L1232.5977770325094 367.5118927110164L1281.9398811949354 367.5118927110164L1281.9398811949354 370.66430492139364L1266.1504078629591 378.5590415873817L1266.1504078629591 486.7278988234552L1281.9398811949354 494.62263548944327L1281.9398811949354 497.7750476998205L1232.5977770325094 497.7750476998205L1232.5977770325094 494.62263548944327L1248.3872503644857 486.7278988234552L1248.3872503644857 435.9877683764273L1181.2819887035866 435.9877683764273L1181.2819887035866 486.7278988234552L1197.071462035563 494.62263548944327L1197.071462035563 497.7750476998205ZM1345.892730645457 499.74873186631754L1345.892730645457 499.74873186631754Q1326.7315468623815 499.74873186631754 1315.6843979860164 488.098512827967Q1304.6372491096508 476.44829378961646 1304.6372491096508 457.31452228663136L1304.6372491096508 457.31452228663136Q1304.6372491096508 442.51189103790364 1310.4486524887811 431.1632070805457Q1316.2874681480016 419.81452312318777 1325.854353899494 413.40004958207237Q1335.4212396509865 406.985576040957 1346.6602744879838 406.985576040957L1346.6602744879838 406.985576040957Q1362.2578618593284 406.985576040957 1371.2490897289258 417.84083895669073Q1380.212905318433 428.6961018724244 1380.212905318433 449.0360136993799L1380.212905318433 449.0360136993799L1379.2260632351845 450.0228557826284L1320.2348364809955 450.0228557826284Q1320.4267224416276 459.0963204924967 1323.7710206126362 467.07329399875556Q1327.1427310637355 475.07767978510464 1334.5440466880991 480.0118902013472Q1341.9453623124632 484.94610061758976 1354.3631251933402 484.94610061758976L1354.3631251933402 484.94610061758976Q1365.2183881090737 484.94610061758976 1379.8291333971702 477.0513639516017L1379.8291333971702 477.0513639516017L1380.4322035591554 477.0513639516017L1380.4322035591554 479.02504811809865Q1375.8817650641759 487.522854946072 1366.890537194578 493.6357934061948Q1357.9267216050707 499.74873186631754 1345.892730645457 499.74873186631754ZM1343.5078622776064 415.675268829562L1343.5078622776064 415.675268829562Q1334.050625646475 415.675268829562 1328.019924026623 422.28162833130904Q1321.9892224067708 428.88798783305606 1320.6186084022588 440.9219787926699L1320.6186084022588 440.9219787926699L1365.2183881090737 440.9219787926699Q1363.0528179819453 427.51737382854424 1357.6251865240783 421.5963213290531Q1352.1975550662114 415.675268829562 1343.5078622776064 415.675268829562ZM1442.7951407644432 497.7750476998205L1400.5528171453889 497.7750476998205L1400.5528171453889 494.62263548944327L1412.997992306356 488.2903987885986L1412.997992306356 429.4910579950413L1401.155887307374 419.21145296120255L1401.155887307374 417.84083895669073L1425.6076411478648 406.985576040957L1426.8137814718352 406.985576040957L1428.5681673976105 423.76189145618184L1429.3631235202274 423.76189145618184Q1433.9135620152065 416.4702249521789 1437.7512812278396 412.7969794200872Q1441.616412720563 409.15114616808575 1444.960710891572 408.0820672445665Q1448.3050090625811 406.985576040957 1451.67671951368 406.985576040957L1451.67671951368 406.985576040957Q1453.2392194788235 406.985576040957 1455.3225527656814 407.58864620294224Q1457.4058860525392 408.1643040848372 1458.7765000570512 408.76737424682244L1458.7765000570512 408.76737424682244Q1460.94207018418 409.7542163300709 1462.8335175104062 411.1248303345828Q1464.6975525565422 412.52285661918484 1464.6975525565422 414.27724254495996L1464.6975525565422 414.27724254495996Q1464.6975525565422 416.0590407508254 1463.9025964339257 417.84083895669073L1463.9025964339257 417.84083895669073L1459.9552281009314 427.51737382854424L1458.5846140964195 427.51737382854424L1451.0736493516947 424.5568475787987Q1448.9080792245659 423.57000549555016 1446.824745937708 423.3781195349185Q1444.7688249309404 423.1588212941966 1442.7951407644432 423.1588212941966L1442.7951407644432 423.1588212941966Q1434.4892198971015 423.1588212941966 1428.7874656383324 431.65662812216993L1428.7874656383324 431.65662812216993L1428.7874656383324 488.2903987885986L1442.7951407644432 494.62263548944327L1442.7951407644432 497.7750476998205ZM1490.163560760372 499.74873186631754L1488.9848327164918 499.74873186631754L1488.9848327164918 372.25421716662737L1477.1427277175098 361.97461213278865L1477.1427277175098 360.6039981282768L1503.5681657244977 349.7487352125431L1504.7743060484681 349.7487352125431L1504.7743060484681 419.21145296120255L1505.5418498909949 419.21145296120255Q1513.0528146357196 412.90662854044814 1520.0703583388204 409.9461022907026Q1527.0604897618305 406.985576040957 1535.1471123884503 406.985576040957L1535.1471123884503 406.985576040957Q1545.234831461657 406.985576040957 1552.9102698869233 412.1116724178313Q1560.6131205922802 417.2377687947055 1565.0539099668981 426.6127685855664Q1569.4946993415165 435.9877683764273 1569.4946993415165 449.0360136993799L1569.4946993415165 449.0360136993799Q1569.4946993415165 465.2092589526195 1563.3817608813938 476.5579429099774Q1557.2688224212711 487.9066268673354 1546.797331426801 493.82767936682643Q1536.3532527124207 499.74873186631754 1523.3050073894678 499.74873186631754L1523.3050073894678 499.74873186631754Q1515.218384762848 499.74873186631754 1508.228253339838 498.26846874144474Q1501.2107096367372 496.788205616572 1495.0977711766145 494.62263548944327L1495.0977711766145 494.62263548944327L1490.163560760372 499.74873186631754ZM1524.2918494727164 420.6094792458046L1524.2918494727164 420.6094792458046Q1519.5769372971959 420.6094792458046 1514.5330777605923 422.0897423706774Q1509.4892182239887 423.57000549555016 1504.7743060484681 426.5305317452957L1504.7743060484681 426.5305317452957L1504.7743060484681 482.1774603284759Q1510.2841743466056 486.5360128628235 1515.9036917651042 488.4000479089596Q1521.550621463693 490.26408295509566 1528.4585160464326 490.26408295509566L1528.4585160464326 490.26408295509566Q1535.3664106291722 490.26408295509566 1541.0681648879413 486.6182497030942Q1546.797331426801 482.9724164510927 1550.2512787181704 474.88579382447296Q1553.7052260095402 466.7991711978532 1553.7052260095402 453.55903991426896L1553.7052260095402 453.55903991426896Q1553.7052260095402 436.39895257778085 1545.1251823412963 428.5042159117927Q1536.5451386730524 420.6094792458046 1524.2918494727164 420.6094792458046ZM1621.2216718717932 499.74873186631754L1621.2216718717932 499.74873186631754Q1611.928908921203 499.74873186631754 1605.212900299095 498.1588196210838Q1598.5243039570769 496.5963196559403 1591.6164093743378 493.0327232442096L1591.6164093743378 493.0327232442096L1591.6164093743378 470.93842549147894L1594.3576373833612 470.93842549147894L1600.6898740842057 481.7936884072126Q1606.8028125443284 492.64895132294623 1620.6186017098075 492.64895132294623L1620.6186017098075 492.64895132294623Q1628.5133383757961 492.64895132294623 1632.954127750414 488.89346895058384Q1637.3949171250324 485.13798657822144 1637.3949171250324 478.6412761968354L1637.3949171250324 478.6412761968354Q1637.3949171250324 472.912109657976 1634.6262768359188 469.75969744759874Q1631.8576365468048 466.57987295713133 1626.8411892902914 464.11276774901Q1621.7973297536878 461.64566254088874 1614.8894351709482 458.4932503305115L1614.8894351709482 458.4932503305115Q1604.8291283778317 453.9702241156225 1599.4014969199648 448.5425926577557Q1593.9738654620978 443.1149611998888 1593.9738654620978 433.24654036740367L1593.9738654620978 433.24654036740367Q1593.9738654620978 425.9274615833105 1598.1131197557238 420.0064090838194Q1602.2523740493493 414.08535658432834 1608.6668475904648 410.5491724526878Q1615.08132113158 406.985576040957 1621.9892157143195 406.985576040957L1621.9892157143195 406.985576040957Q1629.308294498413 406.985576040957 1635.4212329585357 408.76737424682244Q1641.5341714186584 410.5491724526878 1647.866408119503 413.701584663065L1647.866408119503 413.701584663065L1647.866408119503 435.2202245339007L1645.0977678303889 435.2202245339007L1638.5736451689127 424.7487335394303Q1635.229346997904 419.4307512019244 1631.2819786649097 417.04588283407384Q1627.3346103319159 414.6884267463135 1622.7841718369364 414.6884267463135L1622.7841718369364 414.6884267463135Q1616.0681632148285 414.6884267463135 1612.0385580415636 418.03272491732235Q1607.9815405882086 421.40443536842145 1607.9815405882086 427.32548786791256L1607.9815405882086 427.32548786791256Q1607.9815405882086 434.0140842099303 1612.8335141641805 437.46803150130006Q1617.6580754600623 440.9219787926699 1626.9234261305623 445.2805313270175L1626.9234261305623 445.2805313270175Q1632.46070670879 448.0491716161314 1638.0802241272881 450.79039962515503Q1643.6997415457868 453.55903991426896 1647.3729870778789 458.6028994508725Q1651.0188203298803 463.6193467073858 1651.0188203298803 472.912109657976L1651.0188203298803 472.912109657976Q1651.0188203298803 481.6018024465809 1646.2764958742691 487.60509178634277Q1641.5341714186584 493.6357934061948 1634.6262768359188 496.67855649621106Q1627.7183822531792 499.74873186631754 1621.2216718717932 499.74873186631754Z " fill="black" transform="matrix(0.5299758724718188,0,0,0.5299758724718188,0,74.89344476599948)"/></g></svg>